# xmcd CD database file
#
# Track frame offsets:
#	183
#	16078
#	27570
#	39475
#	49970
#	61108
#	71730
#	83423
#	93465
#	102115
#	112995
#	124873
#	135140
#	147873
#	161593
#	172135
#
# Disc length: 2458 seconds
#
# Revision: 6
# Processed by: cddbd v1.5.2PL0 Copyright (c) Steve Scherf et al.
# Submitted via: CDex 1.50
#
DISCID=cd099810
DTITLE=Verschiedene - Country Love Songs Vol. 1
DYEAR=1900
DGENRE=Country
TTITLE0=You Needed Me (Lynn Anderson)
TTITLE1=Poem For My Little Lady (Kenny Rogers)
TTITLE2=US Of America (Donna Fargo)
TTITLE3=I Feel Sorry For Him (Willlie Nelson)
TTITLE4=Just Out Of Reach (Patsy Cline)
TTITLE5=All I Have To Do Is Dream (The Everly Brothers)
TTITLE6=Try A Little Kindness (Billie Jo Spears)
TTITLE7=Take My Hand For A While (Don Williams)
TTITLE8=Love's Gonna Live Here (Waylon Jennings)
TTITLE9=I Love You Because (Johnny Cash)
TTITLE10=Letter To Heaven (Dolly Parton)
TTITLE11=Before The Next Teardrop Falls (Feddy Fender)
TTITLE12=The old Country Church (Oak Ridge Boys)
TTITLE13=Home is Where  You're Happy (Willie Nelson)
TTITLE14=She Even Woke Me Up To Say Goodbya (Kenny Rogers)
TTITLE15=Stand by Your Man (Lynn Anderson)
EXTD=
EXTT0=
EXTT1=
EXTT2=
EXTT3=
EXTT4=
EXTT5=
EXTT6=
EXTT7=
EXTT8=
EXTT9=
EXTT10=
EXTT11=
EXTT12=
EXTT13=
EXTT14=
EXTT15=
PLAYORDER=
